<?xml version="1.0" encoding="UTF-8" standalone="no"?>
<svg
   viewBox="0 0 64 64"
   version="1.1"
   id="svg334"
   xml:space="preserve"
   width="100%"
   height="100%"
   xmlns:xlink="http://www.w3.org/1999/xlink"
   xmlns="http://www.w3.org/2000/svg"
   xmlns:svg="http://www.w3.org/2000/svg"><defs
     id="defs338"><radialGradient
       xlink:href="#linearGradient1200-3"
       id="radialGradient1"
       cx="21.456154"
       cy="78.368561"
       fx="21.456154"
       fy="78.368561"
       r="32"
       gradientUnits="userSpaceOnUse"
       gradientTransform="matrix(0,-1.732455,1.6108918,1.1567074e-6,-94.133103,92.61029)" /><linearGradient
       id="linearGradient1200-3"><stop
         style="stop-color:#ca1428;stop-opacity:1;"
         offset="0"
         id="stop1198-6" /><stop
         style="stop-color:#9b1526;stop-opacity:1;"
         offset="1"
         id="stop1196-7" /></linearGradient></defs><path
     fill="#FF8700"
     d="M 0,0 H 64 V 64 H 0 Z"
     id="path330-5"
     style="fill:url(#radialGradient1);fill-opacity:1" /><path
     id="rect2"
     style="fill:#ffffff;stroke-linecap:round;stroke-linejoin:round"
     d="m 21.014823,10.906181 c 1.653789,0 2.985178,1.33139 2.985178,2.985178 v 36.217282 c 0,1.653788 -1.331389,2.985178 -2.985178,2.985178 -1.653788,0 -2.985177,-1.33139 -2.985177,-2.985178 V 13.891359 c 0,-1.653788 1.331389,-2.985178 2.985177,-2.985178 z" /><path
     id="rect4"
     style="fill:#ffffff;stroke-linecap:round;stroke-linejoin:round"
     d="m 42.985178,10.906181 c 1.653788,0 2.985177,1.33139 2.985177,2.985178 v 36.217282 c 0,1.653788 -1.331389,2.985178 -2.985177,2.985178 C 41.331389,53.093819 40,51.762429 40,50.108641 V 13.891359 c 0,-1.653788 1.331389,-2.985178 2.985178,-2.985178 z" /><path
     id="rect5"
     style="fill:#ffffff;stroke-width:0.815482;stroke-linecap:round;stroke-linejoin:round"
     transform="rotate(-90)"
     d="m -22.014822,10.906181 c 1.099788,0 1.985177,0.88539 1.985177,1.985178 v 38.217282 c 0,1.099788 -0.885389,1.985178 -1.985177,1.985178 C -23.114611,53.093819 -24,52.208429 -24,51.108641 V 12.891359 c 0,-1.099788 0.885389,-1.985178 1.985178,-1.985178 z" /><path
     id="rect6"
     style="fill:#ffffff;stroke-width:0.815482;stroke-linecap:round;stroke-linejoin:round"
     transform="rotate(-90)"
     d="m -41.985178,10.906181 c 1.099788,0 1.985177,0.88539 1.985177,1.985178 v 38.217282 c 0,1.099788 -0.885389,1.985178 -1.985177,1.985178 -1.099789,0 -1.985178,-0.88539 -1.985178,-1.985178 V 12.891359 c 0,-1.099788 0.885389,-1.985178 1.985178,-1.985178 z" /></svg>
